REM DIRINDEX 1\2,1\3,1\4
REM DIRNAME cjc151,folder01,folder02,folder03
TITLE ""
FILE "136 136_Lesson 5_TOEFL_3900.mp3" MP3
  TRACK 01 AUDIO
    TITLE "4:cjc151_5911"
    INDEX 01 00:00:00
  TRACK 02 AUDIO
    TITLE "0:"
    INDEX 01 00:01:56
  TRACK 03 AUDIO
    TITLE "2:cjc151_5912"
    INDEX 01 00:02:42
  TRACK 04 AUDIO
    TITLE "0:"
    INDEX 01 00:03:63
  TRACK 05 AUDIO
    TITLE "3:cjc151_5913"
    INDEX 01 00:05:38
  TRACK 06 AUDIO
    TITLE "0:"
    INDEX 01 00:10:19
  TRACK 07 AUDIO
    TITLE "2:cjc151_5914"
    INDEX 01 00:11:74
  TRACK 08 AUDIO
    TITLE "0:"
    INDEX 01 00:13:43
  TRACK 09 AUDIO
    TITLE "3:cjc151_5915"
    INDEX 01 00:15:17
  TRACK 10 AUDIO
    TITLE "0:"
    INDEX 01 00:19:52
  TRACK 11 AUDIO
    TITLE "2:cjc151_5916"
    INDEX 01 00:21:31
  TRACK 12 AUDIO
    TITLE "0:"
    INDEX 01 00:22:52
  TRACK 13 AUDIO
    TITLE "3:cjc151_5917"
    INDEX 01 00:24:33
  TRACK 14 AUDIO
    TITLE "0:"
    INDEX 01 00:27:63
  TRACK 15 AUDIO
    TITLE "2:cjc151_5918"
    INDEX 01 00:29:40
  TRACK 16 AUDIO
    TITLE "0:"
    INDEX 01 00:30:57
  TRACK 17 AUDIO
    TITLE "3:cjc151_5919"
    INDEX 01 00:32:39
  TRACK 18 AUDIO
    TITLE "0:"
    INDEX 01 00:36:54
  TRACK 19 AUDIO
    TITLE "2:cjc151_5920"
    INDEX 01 00:38:33
  TRACK 20 AUDIO
    TITLE "0:"
    INDEX 01 00:39:43
  TRACK 21 AUDIO
    TITLE "3:cjc151_5921"
    INDEX 01 00:41:20
  TRACK 22 AUDIO
    TITLE "0:"
    INDEX 01 00:45:12
  TRACK 23 AUDIO
    TITLE "2:cjc151_5922"
    INDEX 01 00:46:66
  TRACK 24 AUDIO
    TITLE "0:"
    INDEX 01 00:48:02
  TRACK 25 AUDIO
    TITLE "3:cjc151_5923"
    INDEX 01 00:49:55
  TRACK 26 AUDIO
    TITLE "0:"
    INDEX 01 00:54:42
  TRACK 27 AUDIO
    TITLE "2:cjc151_5924"
    INDEX 01 00:56:24
  TRACK 28 AUDIO
    TITLE "0:"
    INDEX 01 00:57:23
  TRACK 29 AUDIO
    TITLE "3:cjc151_5925"
    INDEX 01 00:59:00
  TRACK 30 AUDIO
    TITLE "0:"
    INDEX 01 01:03:61
  TRACK 31 AUDIO
    TITLE "2:cjc151_5926"
    INDEX 01 01:05:40
  TRACK 32 AUDIO
    TITLE "0:"
    INDEX 01 01:06:71
  TRACK 33 AUDIO
    TITLE "3:cjc151_5927"
    INDEX 01 01:08:50
  TRACK 34 AUDIO
    TITLE "0:"
    INDEX 01 01:12:05
  TRACK 35 AUDIO
    TITLE "2:cjc151_5928"
    INDEX 01 01:13:57
  TRACK 36 AUDIO
    TITLE "0:"
    INDEX 01 01:15:05
  TRACK 37 AUDIO
    TITLE "3:cjc151_5929"
    INDEX 01 01:16:60
  TRACK 38 AUDIO
    TITLE "0:"
    INDEX 01 01:20:22
  TRACK 39 AUDIO
    TITLE "2:cjc151_5930"
    INDEX 01 01:22:01
  TRACK 40 AUDIO
    TITLE "0:"
    INDEX 01 01:23:15
  TRACK 41 AUDIO
    TITLE "3:cjc151_5931"
    INDEX 01 01:24:69
  TRACK 42 AUDIO
    TITLE "0:"
    INDEX 01 01:29:35
  TRACK 43 AUDIO
    TITLE "2:cjc151_5932"
    INDEX 01 01:31:14
  TRACK 44 AUDIO
    TITLE "0:"
    INDEX 01 01:32:37
  TRACK 45 AUDIO
    TITLE "3:cjc151_5933"
    INDEX 01 01:34:16
  TRACK 46 AUDIO
    TITLE "0:"
    INDEX 01 01:38:45
  TRACK 47 AUDIO
    TITLE "2:cjc151_5934"
    INDEX 01 01:40:23
  TRACK 48 AUDIO
    TITLE "0:"
    INDEX 01 01:41:38
  TRACK 49 AUDIO
    TITLE "3:cjc151_5935"
    INDEX 01 01:43:15
  TRACK 50 AUDIO
    TITLE "0:"
    INDEX 01 01:48:01
  TRACK 51 AUDIO
    TITLE "2:cjc151_5936"
    INDEX 01 01:49:55
  TRACK 52 AUDIO
    TITLE "0:"
    INDEX 01 01:50:68
  TRACK 53 AUDIO
    TITLE "3:cjc151_5937"
    INDEX 01 01:52:48
  TRACK 54 AUDIO
    TITLE "0:"
    INDEX 01 01:56:36
  TRACK 55 AUDIO
    TITLE "2:cjc151_5938"
    INDEX 01 01:58:13
  TRACK 56 AUDIO
    TITLE "0:"
    INDEX 01 01:59:51
  TRACK 57 AUDIO
    TITLE "3:cjc151_5939"
    INDEX 01 02:01:31
  TRACK 58 AUDIO
    TITLE "0:"
    INDEX 01 02:05:29
  TRACK 59 AUDIO
    TITLE "2:cjc151_5940"
    INDEX 01 02:07:08
  TRACK 60 AUDIO
    TITLE "0:"
    INDEX 01 02:08:27
  TRACK 61 AUDIO
    TITLE "3:cjc151_5941"
    INDEX 01 02:10:06
  TRACK 62 AUDIO
    TITLE "0:"
    INDEX 01 02:14:57
  TRACK 63 AUDIO
    TITLE "2:cjc151_5942"
    INDEX 01 02:16:36
  TRACK 64 AUDIO
    TITLE "0:"
    INDEX 01 02:17:65
  TRACK 65 AUDIO
    TITLE "3:cjc151_5943"
    INDEX 01 02:19:44
  TRACK 66 AUDIO
    TITLE "0:"
    INDEX 01 02:22:35
  TRACK 67 AUDIO
    TITLE "2:cjc151_5944"
    INDEX 01 02:24:14
  TRACK 68 AUDIO
    TITLE "0:"
    INDEX 01 02:25:31
  TRACK 69 AUDIO
    TITLE "3:cjc151_5945"
    INDEX 01 02:27:11
  TRACK 70 AUDIO
    TITLE "0:"
    INDEX 01 02:30:09
  TRACK 71 AUDIO
    TITLE "2:cjc151_5946"
    INDEX 01 02:31:61
  TRACK 72 AUDIO
    TITLE "0:"
    INDEX 01 02:32:72
  TRACK 73 AUDIO
    TITLE "3:cjc151_5947"
    INDEX 01 02:34:52
  TRACK 74 AUDIO
    TITLE "0:"
    INDEX 01 02:38:54
  TRACK 75 AUDIO
    TITLE "2:cjc151_5948"
    INDEX 01 02:40:31
  TRACK 76 AUDIO
    TITLE "0:"
    INDEX 01 02:41:54
  TRACK 77 AUDIO
    TITLE "3:cjc151_5949"
    INDEX 01 02:43:33
  TRACK 78 AUDIO
    TITLE "0:"
    INDEX 01 02:47:56
  TRACK 79 AUDIO
    TITLE "2:cjc151_5950"
    INDEX 01 02:49:32
  TRACK 80 AUDIO
    TITLE "0:"
    INDEX 01 02:50:68
  TRACK 81 AUDIO
    TITLE "3:cjc151_5951"
    INDEX 01 02:52:44
  TRACK 82 AUDIO
    TITLE "0:"
    INDEX 01 02:57:55
  TRACK 83 AUDIO
    TITLE "2:cjc151_5952"
    INDEX 01 02:59:34
  TRACK 84 AUDIO
    TITLE "0:"
    INDEX 01 03:00:49
  TRACK 85 AUDIO
    TITLE "3:cjc151_5953"
    INDEX 01 03:02:29
  TRACK 86 AUDIO
    TITLE "0:"
    INDEX 01 03:06:26
  TRACK 87 AUDIO
    TITLE "2:cjc151_5954"
    INDEX 01 03:08:04
  TRACK 88 AUDIO
    TITLE "0:"
    INDEX 01 03:09:23
  TRACK 89 AUDIO
    TITLE "3:cjc151_5955"
    INDEX 01 03:11:02
  TRACK 90 AUDIO
    TITLE "0:"
    INDEX 01 03:15:33
